<svg id="Calque_1" data-name="Calque 1" xmlns="http://www.w3.org/2000/svg" viewBox="0 0 450 104.22"><path d="M419.32,103.5v-3.41h27.27V32.92L418.31,4.63H3.41V72.57l27.73,27.52H373.3v3.41h-343L0,73.21v-72H419.32L450,31.9v71.6Zm-28.56-6.58a4.84,4.84,0,0,1,.74.77,1.4,1.4,0,0,1,.22.75v1.29a1.37,1.37,0,0,1-.22.75,5.25,5.25,0,0,1-.74.76,1.45,1.45,0,0,1-.82.28l2.17,3.85h-1L389,101.52h-2.19v3.85H386V96.64h3.93A1.47,1.47,0,0,1,390.76,96.92Zm-3.95.53v3.25h3.07a.42.42,0,0,0,.25-.06,2.16,2.16,0,0,0,.71-.7.58.58,0,0,0,0-.24V98.47a.58.58,0,0,0,0-.24,2.25,2.25,0,0,0-.71-.73.42.42,0,0,0-.25,0Zm13.07.72a2.29,2.29,0,0,0-.7-.72.51.51,0,0,0-.25,0h-1.58a.46.46,0,0,0-.22,0,2.82,2.82,0,0,0-1,1.11l-.83-.25a4.29,4.29,0,0,1,.32-.57,3.93,3.93,0,0,1,.91-.91,1.48,1.48,0,0,1,.75-.24H399a1.48,1.48,0,0,1,.87.28,4.76,4.76,0,0,1,.73.77,1.41,1.41,0,0,1,.22.76v1a1.58,1.58,0,0,1-.92,1.36l-3,1.63a.85.85,0,0,0-.47.69v1.47h4.31v.81H395.5V103a1.52,1.52,0,0,1,.93-1.36l3.06-1.63a.79.79,0,0,0,.43-.67v-.94A.62.62,0,0,0,399.88,98.17Zm5.86,6.42a.44.44,0,0,0,.21,0h1.64a.5.5,0,0,0,.26-.06,2.1,2.1,0,0,0,.68-.71.52.52,0,0,0,.05-.23V102a.62.62,0,0,0-.05-.25,2.07,2.07,0,0,0-.68-.7.62.62,0,0,0-.26-.06h-3.24V96.64H409v.81H405.2v2.7h2.4a1.54,1.54,0,0,1,.87.29,5.07,5.07,0,0,1,.73.74,1.33,1.33,0,0,1,.22.76v1.7a1.33,1.33,0,0,1-.22.76,5.2,5.2,0,0,1-.73.77,1.53,1.53,0,0,1-.87.28h-1.69a1.58,1.58,0,0,1-.75-.24,4.09,4.09,0,0,1-.91-.9,3.16,3.16,0,0,1-.33-.58l.84-.23A3.17,3.17,0,0,0,405.74,104.59Z" transform="translate(0 -1.22)" style="fill:#05050b;fill-rule:evenodd"/></svg>