<svg id="Calque_1" data-name="Calque 1" xmlns="http://www.w3.org/2000/svg" viewBox="0 0 113.68 47.42"><polygon points="113.68 19.86 113.68 46.06 101.01 46.06 101.01 44.1 111.72 44.1 111.72 20.65 93.6 1.96 1.96 1.96 1.96 28.14 17.76 44.1 83.92 44.1 83.92 46.06 16.93 46.06 0 28.94 0 0 94.42 0 113.68 19.86" style="fill:#cfcdcd;fill-rule:evenodd"/><path d="M90,43.2a2.48,2.48,0,0,1,.39.41.68.68,0,0,1,.12.4v.68a.72.72,0,0,1-.12.4,2.91,2.91,0,0,1-.39.4.74.74,0,0,1-.43.14l1.15,2h-.51l-1.14-2H87.89v2h-.44V43.05h2.08A.78.78,0,0,1,90,43.2Zm-2.09.28V45.2h1.63a.28.28,0,0,0,.13,0A1.22,1.22,0,0,0,90,44.8a.49.49,0,0,0,0-.13V44a.53.53,0,0,0,0-.13,1.25,1.25,0,0,0-.38-.38.19.19,0,0,0-.13,0Z" transform="translate(-1.16 -0.29)" style="fill:#cfcdcd;fill-rule:evenodd"/><path d="M94.81,43.86a1.22,1.22,0,0,0-.37-.38.31.31,0,0,0-.13,0h-.84a.21.21,0,0,0-.12,0,1.46,1.46,0,0,0-.51.58l-.44-.13a1.24,1.24,0,0,1,.17-.3,2,2,0,0,1,.47-.48.86.86,0,0,1,.4-.13h.87a.85.85,0,0,1,.47.15,2.4,2.4,0,0,1,.38.41.68.68,0,0,1,.12.4v.54a.85.85,0,0,1-.49.72l-1.61.86a.43.43,0,0,0-.24.36v.78h2.27v.43H92.49V46.43a.8.8,0,0,1,.49-.72l1.62-.86a.41.41,0,0,0,.23-.36V44A.51.51,0,0,0,94.81,43.86Z" transform="translate(-1.16 -0.29)" style="fill:#cfcdcd;fill-rule:evenodd"/><path d="M97.9,47.26l.12,0h.86a.32.32,0,0,0,.14,0,1.19,1.19,0,0,0,.36-.38.21.21,0,0,0,0-.12v-.88a.28.28,0,0,0,0-.13,1.16,1.16,0,0,0-.36-.37.32.32,0,0,0-.14,0H97.17V43.05h2.44v.43h-2v1.43h1.27a.81.81,0,0,1,.46.15,2.92,2.92,0,0,1,.39.4.75.75,0,0,1,.11.4v.9a.8.8,0,0,1-.11.4,3.68,3.68,0,0,1-.39.41.81.81,0,0,1-.46.14H98a.78.78,0,0,1-.4-.12,2,2,0,0,1-.48-.48,1.81,1.81,0,0,1-.18-.31l.45-.12A1.72,1.72,0,0,0,97.9,47.26Z" transform="translate(-1.16 -0.29)" style="fill:#cfcdcd;fill-rule:evenodd"/></svg>