<?xml version="1.0" encoding="iso-8859-1"?>
<!-- Generator: Adobe Illustrator 26.0.0, SVG Export Plug-In . SVG Version: 6.00 Build 0)  -->
<svg version="1.1" id="Calque_1" xmlns="http://www.w3.org/2000/svg" xmlns:xlink="http://www.w3.org/1999/xlink" x="0px" y="0px"
	 viewBox="0 0 300 300" style="enable-background:new 0 0 300 300;" xml:space="preserve">
<g>
	<path style="fill:#FFFFFF;" d="M149.444,292.879C69.41,292.494,6.804,228.117,6.828,149.972
		C6.851,73.009,68.264,7.924,149.553,7.282c80.03,0.527,142.708,64.252,142.758,142.8
		C292.361,228.738,229.277,292.586,149.444,292.879z M149.419,278.114c73.266-0.485,127.927-59.255,128.083-127.291
		c0.164-71.358-56.454-128.498-127.698-128.609C76.877,22.1,21.71,81.019,21.618,149.761
		C21.524,219.365,76.825,277.429,149.419,278.114z"/>
	<path d="M149.419,278.114c-72.594-0.685-127.895-58.749-127.801-128.353C21.71,81.019,76.877,22.1,149.804,22.214
		c71.244,0.111,127.862,57.251,127.698,128.609C277.346,218.859,222.685,277.629,149.419,278.114z M154.516,84.324
		c-2.695,0-5.391-0.055-8.085,0.01c-7.96,0.193-15.842,1.119-23.652,2.666c-23.262,4.609-44.204,14.268-62.842,28.917
		c-4.72,3.71-9.25,7.646-13.366,12.027c-3.412,3.631-4.038,9.195-1.624,13.669c2.425,4.493,7.393,6.945,12.323,6.152
		c2.883-0.464,5.221-1.849,7.274-3.874c9.582-9.446,20.417-17.121,32.51-23.038c15.67-7.667,32.239-11.737,49.64-12.423
		c9.218-0.363,18.38,0.316,27.453,2.035c9.51,1.802,18.698,4.637,27.553,8.556c5.079,2.248,9.983,4.83,14.696,7.753
		c4.927,3.056,9.674,6.388,14.054,10.202c2.673,2.327,5.251,4.762,7.878,7.143c0.518,0.469,1.047,0.929,1.596,1.361
		c4.195,3.302,11.163,3.573,15.752-1.094c4.768-4.848,4.419-12.068,0.535-16.299c-3.587-3.907-7.585-7.381-11.683-10.728
		c-5.265-4.301-10.812-8.21-16.629-11.745c-7.018-4.265-14.338-7.913-21.958-10.953c-7.482-2.985-15.171-5.316-23.043-7.034
		C173.546,85.589,164.087,84.455,154.516,84.324z M150.372,126.968c-7.395-0.044-15.267,0.868-23.057,2.566
		c-13.384,2.918-25.751,8.242-37.148,15.803c-6.26,4.153-12.095,8.848-17.306,14.288c-2.255,2.354-3.281,5.136-3.309,8.404
		c-0.058,6.698,6.509,13.326,14.75,11.505c2.55-0.563,4.468-2.089,6.354-3.771c2.792-2.491,5.597-4.978,8.533-7.295
		c6.403-5.054,13.551-8.822,21.148-11.73c7.362-2.818,14.978-4.565,22.843-5.289c8.321-0.767,16.573-0.396,24.763,1.209
		c7.134,1.398,14.008,3.594,20.559,6.8c3.952,1.934,7.837,3.954,11.468,6.461c4.037,2.786,7.844,5.837,11.393,9.223
		c1.475,1.408,2.932,2.87,4.869,3.688c7.24,3.059,14.893-1.31,16.432-8.006c0.903-3.928,0.297-7.434-2.289-10.519
		c-1.119-1.335-2.346-2.599-3.641-3.766c-4.679-4.215-9.581-8.142-14.859-11.603c-6.587-4.32-13.549-7.891-20.896-10.698
		C178.095,129.316,164.747,126.908,150.372,126.968z M151.362,170.483c-3.248-0.09-7.76,0.285-12.245,1.152
		c-5.318,1.028-10.502,2.511-15.429,4.735c-5.71,2.577-11.051,5.809-15.778,9.963c-1.761,1.548-3.503,3.137-5.091,4.856
		c-2.604,2.818-3.223,6.326-2.586,9.941c1.207,6.857,8.223,11.102,14.957,9.285c2.25-0.607,3.982-2.003,5.703-3.467
		c2.014-1.714,3.949-3.573,6.156-5c5.764-3.728,11.99-6.358,18.922-6.983c6.574-0.592,13.064-0.363,19.353,1.951
		c4.574,1.683,8.921,3.777,12.714,6.885c1.351,1.107,2.655,2.275,3.948,3.451c2.878,2.62,6.159,4.048,10.12,3.449
		c4.675-0.707,8.037-3.181,9.753-7.622c1.692-4.38,0.89-8.444-2.114-11.997c-1.182-1.398-2.643-2.565-4-3.812
		c-4.752-4.364-10.142-7.811-15.973-10.481C171.191,172.861,162.147,170.701,151.362,170.483z M141.342,221.783
		c-0.399,4.511,3.691,10.042,9.909,10.015c5.489-0.024,9.889-4.438,9.943-9.896c0.053-5.437-4.351-9.971-9.966-9.979
		C145.66,211.914,141.122,216.587,141.342,221.783z"/>
	<path style="fill:#FFFFFF;" d="M154.516,84.324c9.571,0.131,19.03,1.265,28.382,3.306c7.872,1.718,15.562,4.049,23.043,7.034
		c7.62,3.04,14.939,6.688,21.958,10.953c5.817,3.535,11.365,7.444,16.629,11.745c4.097,3.347,8.096,6.821,11.683,10.728
		c3.884,4.231,4.233,11.451-0.535,16.299c-4.589,4.666-11.557,4.396-15.752,1.094c-0.549-0.432-1.078-0.892-1.596-1.361
		c-2.626-2.38-5.205-4.815-7.878-7.143c-4.38-3.814-9.127-7.146-14.054-10.202c-4.713-2.923-9.618-5.505-14.696-7.753
		c-8.855-3.92-18.043-6.754-27.553-8.556c-9.074-1.719-18.235-2.399-27.453-2.035c-17.401,0.686-33.969,4.755-49.64,12.423
		c-12.093,5.917-22.929,13.592-32.51,23.038c-2.054,2.024-4.391,3.41-7.274,3.874c-4.93,0.794-9.898-1.659-12.323-6.152
		c-2.415-4.474-1.788-10.038,1.624-13.669c4.116-4.382,8.646-8.317,13.366-12.027C78.575,101.268,99.517,91.61,122.779,87
		c7.81-1.547,15.692-2.473,23.652-2.666C149.124,84.269,151.821,84.324,154.516,84.324z"/>
	<path style="fill:#FFFFFF;" d="M150.372,126.968c14.375-0.06,27.723,2.348,40.603,7.269c7.347,2.807,14.309,6.379,20.896,10.698
		c5.278,3.461,10.18,7.388,14.859,11.603c1.295,1.166,2.522,2.43,3.641,3.766c2.586,3.085,3.193,6.591,2.289,10.519
		c-1.54,6.695-9.193,11.065-16.432,8.006c-1.936-0.818-3.393-2.28-4.869-3.688c-3.549-3.386-7.356-6.436-11.393-9.223
		c-3.632-2.507-7.516-4.527-11.468-6.461c-6.55-3.206-13.425-5.402-20.559-6.8c-8.19-1.605-16.441-1.975-24.763-1.209
		c-7.865,0.725-15.481,2.471-22.843,5.289c-7.596,2.908-14.745,6.677-21.148,11.73c-2.935,2.317-5.741,4.804-8.533,7.295
		c-1.885,1.682-3.804,3.207-6.354,3.771c-8.241,1.821-14.808-4.807-14.75-11.505c0.028-3.268,1.055-6.05,3.309-8.404
		c5.211-5.44,11.046-10.135,17.306-14.288c11.397-7.561,23.765-12.885,37.148-15.803
		C135.104,127.835,142.977,126.924,150.372,126.968z"/>
	<path style="fill:#FFFFFF;" d="M151.362,170.483c10.786,0.217,19.83,2.378,28.41,6.307c5.831,2.67,11.222,6.117,15.973,10.481
		c1.357,1.247,2.817,2.414,4,3.812c3.004,3.553,3.806,7.617,2.114,11.997c-1.716,4.44-5.078,6.915-9.753,7.622
		c-3.961,0.599-7.242-0.829-10.12-3.449c-1.292-1.176-2.596-2.344-3.948-3.451c-3.794-3.108-8.14-5.202-12.714-6.885
		c-6.289-2.314-12.779-2.544-19.353-1.951c-6.932,0.625-13.158,3.255-18.922,6.983c-2.207,1.427-4.141,3.286-6.156,5
		c-1.721,1.465-3.453,2.86-5.703,3.467c-6.734,1.817-13.75-2.428-14.957-9.285c-0.637-3.615-0.017-7.123,2.586-9.941
		c1.589-1.72,3.33-3.309,5.091-4.856c4.727-4.154,10.068-7.386,15.778-9.963c4.927-2.224,10.112-3.707,15.429-4.735
		C143.601,170.768,148.114,170.393,151.362,170.483z"/>
	<path style="fill:#FFFFFF;" d="M141.342,221.783c-0.22-5.196,4.317-9.869,9.886-9.86c5.615,0.009,10.019,4.542,9.966,9.979
		c-0.053,5.457-4.454,9.872-9.943,9.896C145.033,231.825,140.943,226.294,141.342,221.783z"/>
</g>
</svg>
